<?xml version="1.0" encoding="UTF-8"?>
<!DOCTYPE svg PUBLIC "-//W3C//DTD SVG 1.1//EN" "http://www.w3.org/Graphics/SVG/1.1/DTD/svg11.dtd">
<!-- Creator: CorelDRAW 2018 (64-Bit) -->
<svg xmlns="http://www.w3.org/2000/svg" xml:space="preserve" width="2008px" height="1063px" version="1.1" style="shape-rendering:geometricPrecision; text-rendering:geometricPrecision; image-rendering:optimizeQuality; fill-rule:evenodd; clip-rule:evenodd"
viewBox="0 0 2008 1063.06"
 xmlns:xlink="http://www.w3.org/1999/xlink">
 <defs>
  <style type="text/css">
   <![CDATA[
    .fil1 {fill:#EE1E26;fill-rule:nonzero}
    .fil0 {fill:#EE1E26;fill-rule:nonzero}
   ]]>
  </style>
 </defs>
 <g id="Слой_x0020_1">
  <metadata id="CorelCorpID_0Corel-Layer"/>
  <g id="_1126491419056">
   <path class="fil0" d="M64.83 349.17c2.1,-4.89 7.89,-2.14 7.39,-9.7 -0.75,-11.32 3.47,-12.78 8.39,-13.57 3.37,-0.54 6.62,-5.98 3.94,-8.37 -10.96,-9.71 -1.97,-19.89 -2.27,-30.47 -4.11,-3.47 -8.21,-6.95 -13.35,-11.32 7.69,-3.21 14.12,-6.63 20.78,-8.41 6.34,-1.71 9.17,-8.39 9.38,-17.62 0.26,-11.33 -5.85,-10.68 -10.3,-12.71 -2.73,-1.26 -6.11,-0.68 -7.87,-8.85 7.48,-5.24 18.37,-5.17 17.84,-26.22 -0.14,-5.63 5.28,-5.83 8.77,-6.83 34.36,-9.83 66.74,-29.98 101.9,-36.98 53,-10.53 106.06,-19.88 159.45,-26.04 55.24,-6.34 110.64,-10.78 165.88,-17.26 64.64,-7.62 129.3,-14.9 194.44,-15.45 75.15,-0.64 150.11,-4.68 225.09,-8.57 97.43,-5 195.08,-7.17 292.06,-18.62 54.53,-6.43 109.01,-13.98 163.29,-23.79 50.69,-9.13 101.5,-19.43 153.35,-16.06 16.42,1.07 30.27,8.31 41.7,29.8 12.5,23.48 28.89,41.17 37.79,70.08 12.15,39.36 20.49,80.65 27.06,122.81 5.42,34.79 10.36,69.68 10.96,105.3 0.11,6.43 2.72,10.95 4.24,16.37 2.06,7.31 3.7,14.98 3.66,23.04 -0.08,17.99 -17.21,64.3 -26.86,73.01 -11.07,9.96 -22.62,18.91 -32.98,30.59 -12.17,13.69 -25.94,20.47 -40.17,24.78 -44.89,13.64 -90.44,21.87 -136.38,25.63 -23,1.9 -45.32,9.44 -68.28,11.42 -20.6,1.76 -41.02,5.89 -61.56,8.6 -45.71,6.04 -91.34,13.32 -137.21,17.16 -22.16,1.85 -44.67,1.59 -66.85,2.82 -32.08,1.77 -64.14,4.75 -96.31,5.69 -38.81,1.12 -77.65,1.87 -116.5,2.32 -59.06,0.65 -118.01,2.42 -176.67,9.89 -40.87,5.17 -82.13,5.98 -123.15,9.57 -35.88,3.08 -71.86,4.66 -107.66,9.23 -14.43,1.82 -29.36,0.28 -43.9,2.01 -59.2,7.08 -118.82,8.39 -177.88,17.51 -33.85,5.22 -67.7,11.89 -102.08,10.54 -25.61,-0.99 -50.68,-10.53 -74.7,-27.69 -11.73,-8.37 -20.7,-24.75 -29.77,-39.87 -5.61,-9.31 -11.06,-18.92 -16.64,-28.32 -8.69,-14.6 -11.03,-22.48 -3.33,-34.58 8.34,-13.1 3.68,-20.05 -1.37,-29.93 -3.1,-6.08 -7.31,-11.72 -4.63,-20.81 2.21,-7.48 3.12,-17.26 10.59,-14.91 5.77,1.79 6.96,-0.7 5.12,-11.19 -2.07,-11.78 6.88,-30.38 14.17,-28.73 9.67,2.23 11.12,-5.79 10.75,-17.67 -0.27,-8.87 -0.7,-17.16 1.22,-25.82 4.68,-21.07 2.02,-27.3 -11.44,-30.01 -2.94,-0.62 -5.89,-1.2 -9.1,-1.8z"/>
   <path class="fil1" d="M316.78 721.2c2.1,-4.88 7.89,-2.13 7.39,-9.7 -0.75,-11.31 3.47,-12.77 8.39,-13.56 3.37,-0.54 6.62,-5.99 3.94,-8.38 -10.96,-9.7 -1.97,-19.88 -2.27,-30.46 -4.11,-3.47 -8.21,-6.95 -13.35,-11.32 7.69,-3.21 14.13,-6.63 20.78,-8.41 6.34,-1.71 9.17,-8.39 9.38,-17.63 0.26,-11.32 -5.84,-10.67 -10.3,-12.7 -2.73,-1.26 -6.11,-0.69 -7.87,-8.85 7.48,-5.24 18.37,-5.17 17.84,-26.23 -0.14,-5.62 5.28,-5.82 8.77,-6.82 34.36,-9.83 66.74,-29.99 101.9,-36.99 53,-10.52 106.06,-19.87 159.45,-26.03 55.24,-6.35 110.64,-10.79 165.88,-17.26 64.64,-7.62 129.3,-14.9 194.44,-15.45 75.15,-0.64 150.11,-4.69 225.09,-8.57 97.44,-5 195.08,-7.17 292.06,-18.62 54.53,-6.43 109.01,-13.99 163.29,-23.79 50.7,-9.13 101.5,-19.44 153.35,-16.06 16.42,1.07 30.27,8.31 41.7,29.8 12.5,23.48 28.89,41.17 37.79,70.08 12.15,39.36 20.49,80.65 27.06,122.8 5.42,34.79 10.36,69.69 10.96,105.31 0.11,6.42 2.72,10.95 4.24,16.37 2.06,7.31 3.7,14.98 3.66,23.03 -0.08,18 -17.21,64.31 -26.86,73.02 -11.07,9.96 -22.62,18.91 -32.98,30.58 -12.17,13.7 -25.94,20.48 -40.17,24.79 -44.89,13.63 -90.44,21.87 -136.38,25.63 -23,1.9 -45.32,9.44 -68.28,11.42 -20.6,1.76 -41.02,5.89 -61.56,8.6 -45.71,6.04 -91.34,13.32 -137.21,17.16 -22.16,1.85 -44.67,1.59 -66.85,2.82 -32.08,1.77 -64.14,4.74 -96.31,5.68 -38.81,1.13 -77.65,1.88 -116.5,2.33 -59.06,0.65 -118.01,2.42 -176.67,9.89 -40.87,5.17 -82.13,5.98 -123.15,9.57 -35.88,3.07 -71.86,4.65 -107.66,9.23 -14.43,1.81 -29.36,0.27 -43.9,2.01 -59.2,7.08 -118.82,8.39 -177.88,17.51 -33.84,5.22 -67.7,11.89 -102.08,10.54 -25.6,-1 -50.68,-10.54 -74.7,-27.7 -11.73,-8.36 -20.7,-24.74 -29.77,-39.86 -5.61,-9.31 -11.06,-18.93 -16.64,-28.33 -8.68,-14.6 -11.03,-22.47 -3.33,-34.57 8.34,-13.1 3.68,-20.05 -1.37,-29.94 -3.1,-6.07 -7.31,-11.72 -4.63,-20.81 2.21,-7.48 3.12,-17.25 10.59,-14.9 5.77,1.79 6.96,-0.7 5.12,-11.2 -2.07,-11.77 6.88,-30.38 14.18,-28.72 9.66,2.23 11.11,-5.79 10.74,-17.67 -0.27,-8.87 -0.7,-17.16 1.22,-25.83 4.68,-21.06 2.02,-27.3 -11.44,-30 -2.94,-0.63 -5.89,-1.21 -9.1,-1.81z"/>
  </g>
 </g>
</svg>
