<?xml version="1.0" encoding="UTF-8"?>
<!DOCTYPE svg PUBLIC "-//W3C//DTD SVG 1.1//EN" "http://www.w3.org/Graphics/SVG/1.1/DTD/svg11.dtd">
<!-- Creator: CorelDRAW 2018 (64-Bit) -->
<svg xmlns="http://www.w3.org/2000/svg" xml:space="preserve" width="1122px" height="236px" version="1.1" style="shape-rendering:geometricPrecision; text-rendering:geometricPrecision; image-rendering:optimizeQuality; fill-rule:evenodd; clip-rule:evenodd"
viewBox="0 0 1122 236.21"
 xmlns:xlink="http://www.w3.org/1999/xlink">
 <defs>
  <style type="text/css">
   <![CDATA[
    .fil0 {fill:#EE1E26;fill-rule:nonzero}
   ]]>
  </style>
 </defs>
 <g id="Слой_x0020_1">
  <metadata id="CorelCorpID_0Corel-Layer"/>
  <path class="fil0" d="M1030.72 21.59c-0.45,5.29 -4.74,4.6 -6.89,10.14 11.35,4.32 17.42,-7.63 26.85,-4.13 10.11,3.73 18.15,-3.27 29.24,4.43 -5.63,4.85 -6.73,16.68 -12.77,20.92 -5.72,4.01 -14.23,0.43 -18.84,8.01 8.64,-0.44 16.27,-4.66 25.79,-1.78 -22.89,9.66 -45.67,19.63 -68.75,28.78 -8.53,3.37 -16.2,8.94 -24.71,12.2 -35.74,13.64 -71.74,26.43 -110.24,31.26 -21.38,2.69 -42.79,5.21 -63.9,9.07 -23.54,4.28 -48.26,4.3 -72.34,6.75 -14.52,1.46 -28.69,4.31 -43.16,6.05 -43.37,5.18 -86.83,9.98 -130.21,15.19 -35.29,4.22 -70.53,8.62 -105.67,13.32 -53.78,7.17 -107.42,14.89 -161.23,21.94 -29.16,3.81 -58.3,7.88 -87.94,9.68 -37.84,2.29 -74.92,8.2 -114.45,2.98 -10.24,-1.36 -20.62,-3.68 -30.78,-4.14 -8.55,-0.4 -18.26,-7.26 -27.13,-15.37 -6.44,-5.86 -7.61,-13.37 -2.64,-17.44 6.37,-5.22 13.3,-9.36 21.51,-9.99 -2.81,-7.7 -6.36,-0.84 -9.05,-5.93 8.61,-7.24 19.13,-8.33 29.78,-9.25 8.45,-0.73 16.45,-3.39 24.89,-4.21 30.57,-2.97 58.03,-16.29 87.7,-22.17 19.35,-3.83 39.48,-4.74 59.38,-6.54 24.87,-2.26 49.35,-6.1 73.92,-9.6 58.14,-8.3 116.14,-17.05 174.32,-25.15 54.79,-7.62 109.66,-14.91 164.66,-21.77 22.86,-2.85 46.3,-3.5 69.15,-6.41 23.54,-3 46.53,-8.17 70.03,-11.26 37.98,-4.99 75,-13.73 114.43,-12.89 7.59,0.16 14.34,-3.22 21.49,-4.74 9.97,-2.12 20.05,-5.22 31.29,-2.09 2.72,0.76 5.32,1.53 7.48,0.4 10.06,-5.23 21.87,-2.49 33.28,-1.96 6.85,0.31 13.13,-2.48 19.53,-4.3 2.04,-0.58 3.82,-1.82 6.32,0.38l-0.34 -0.38z"/>
 </g>
</svg>
